<svg width="42" height="46" viewBox="0 0 42 46" fill="none" xmlns="http://www.w3.org/2000/svg">
<path d="M20.4393 45.9998C19.1807 45.9993 17.9444 45.665 16.8542 45.0305L3.58511 37.3024C2.48947 36.6627 1.58086 35.7424 0.951287 34.6344C0.321716 33.5265 -0.00644716 32.2705 3.31113e-05 30.9934L0.0989809 15.1769C0.109656 13.9244 0.441144 12.6959 1.06127 11.6108C1.68139 10.5256 2.56908 9.62065 3.63817 8.98369L10.5789 4.8867L10.6807 20.9173C10.7237 23.5098 10.6893 26.1572 10.6549 28.7178C10.6319 30.422 10.609 32.1898 10.609 33.9099C10.609 35.0094 11.3117 35.6156 12.588 35.6156C13.9374 35.6156 14.7103 35.0065 14.7103 33.9461L14.6372 25.4483H14.858C16.7553 25.4483 18.6697 25.431 20.5196 25.4136C22.4455 25.3962 24.2653 25.3789 26.0765 25.3789L26.1123 30.7866V43.7936L24.0631 45.0045C22.9641 45.6548 21.7134 45.9983 20.4393 45.9998ZM30.1677 41.3965L30.0645 23.313C30.1003 18.5592 30.1003 16.6945 30.1003 12.6076C30.1318 12.3394 30.1018 12.0676 30.0129 11.8129C29.924 11.5582 29.7784 11.3274 29.5874 11.1383C29.3963 10.9492 29.1648 10.8067 28.9107 10.7219C28.6566 10.637 28.3866 10.612 28.1214 10.6488C27.849 10.6081 27.571 10.631 27.3088 10.7158C27.0466 10.8006 26.8072 10.9451 26.6091 11.138C26.4109 11.3308 26.2594 11.5671 26.166 11.8284C26.0727 12.0897 26.0401 12.3692 26.0707 12.6452C26.0707 13.6449 26.0779 15.0077 26.0865 16.4514C26.0965 18.1441 26.1066 20.0681 26.1066 21.7173L24.271 21.7535C23.293 21.7535 22.2031 21.7622 21.1491 21.7723C20.0951 21.7824 19.0311 21.7911 18.0846 21.7911C16.685 21.7911 15.8375 21.7752 15.2768 21.7636C14.9986 21.7636 14.7978 21.755 14.6315 21.755C14.6128 18.8703 14.6128 13.3512 14.6128 8.48314C14.6128 6.32614 14.6128 4.25161 14.6128 2.50258L17.164 0.995139C18.2566 0.349702 19.4993 0.00768898 20.7655 0.00387743C22.0317 6.58669e-05 23.2763 0.334591 24.3728 0.973438L37.6419 8.70159C38.7376 9.34113 39.6464 10.2615 40.2759 11.3694C40.9055 12.4774 41.2336 13.7335 41.227 15.0105L41.1295 30.8227C41.1189 32.0764 40.7872 33.306 40.1666 34.3922C39.546 35.4784 38.6575 36.3842 37.5874 37.0217L30.1763 41.4008L30.1677 41.3965Z" fill="#5A58B9"/>
</svg>
