<svg width="20" height="20" viewBox="0 0 20 20" fill="none" xmlns="http://www.w3.org/2000/svg">
<mask id="mask0_1971_3196" style="mask-type:alpha" maskUnits="userSpaceOnUse" x="0" y="-1" width="20" height="21">
<rect y="-0.00317383" width="20" height="20" fill="#D9D9D9"/>
</mask>
<g mask="url(#mask0_1971_3196)">
<path d="M4.42341 17.9136C4.00246 17.9136 3.64616 17.7677 3.35449 17.4761C3.06283 17.1844 2.91699 16.8281 2.91699 16.4072V5.25336C2.91699 4.83242 3.06283 4.47611 3.35449 4.18444C3.64616 3.89278 4.00246 3.74694 4.42341 3.74694H5.57726V2.62513C5.57726 2.44245 5.63843 2.28994 5.76076 2.16761C5.88308 2.04529 6.03559 1.98413 6.21828 1.98413C6.40096 1.98413 6.55347 2.04529 6.6758 2.16761C6.79812 2.28994 6.85928 2.44245 6.85928 2.62513V3.74694H13.1734V2.60911C13.1734 2.43176 13.2332 2.28326 13.3528 2.16361C13.4725 2.04396 13.621 1.98413 13.7983 1.98413C13.9757 1.98413 14.1242 2.04396 14.2438 2.16361C14.3635 2.28326 14.4233 2.43176 14.4233 2.60911V3.74694H15.5772C15.9981 3.74694 16.3545 3.89278 16.6461 4.18444C16.9378 4.47611 17.0836 4.83242 17.0836 5.25336V16.4072C17.0836 16.8281 16.9378 17.1844 16.6461 17.4761C16.3545 17.7677 15.9981 17.9136 15.5772 17.9136H4.42341ZM4.42341 16.6636H15.5772C15.6413 16.6636 15.7001 16.6369 15.7535 16.5835C15.8069 16.53 15.8336 16.4713 15.8336 16.4072V8.58669H4.16697V16.4072C4.16697 16.4713 4.19368 16.53 4.2471 16.5835C4.30053 16.6369 4.3593 16.6636 4.42341 16.6636ZM4.16697 7.33671H15.8336V5.25336C15.8336 5.18925 15.8069 5.13048 15.7535 5.07705C15.7001 5.02363 15.6413 4.99692 15.5772 4.99692H4.42341C4.3593 4.99692 4.30053 5.02363 4.2471 5.07705C4.19368 5.13048 4.16697 5.18925 4.16697 5.25336V7.33671ZM10.0003 11.7277C9.79625 11.7277 9.62237 11.6558 9.47868 11.5122C9.33499 11.3685 9.26314 11.1946 9.26314 10.9905C9.26314 10.7865 9.33499 10.6126 9.47868 10.4689C9.62237 10.3252 9.79625 10.2534 10.0003 10.2534C10.2044 10.2534 10.3782 10.3252 10.5219 10.4689C10.6656 10.6126 10.7375 10.7865 10.7375 10.9905C10.7375 11.1946 10.6656 11.3685 10.5219 11.5122C10.3782 11.6558 10.2044 11.7277 10.0003 11.7277ZM6.66697 11.7277C6.46292 11.7277 6.28904 11.6558 6.14535 11.5122C6.00165 11.3685 5.9298 11.1946 5.9298 10.9905C5.9298 10.7865 6.00165 10.6126 6.14535 10.4689C6.28904 10.3252 6.46292 10.2534 6.66697 10.2534C6.87103 10.2534 7.0449 10.3252 7.1886 10.4689C7.33229 10.6126 7.40414 10.7865 7.40414 10.9905C7.40414 11.1946 7.33229 11.3685 7.1886 11.5122C7.0449 11.6558 6.87103 11.7277 6.66697 11.7277ZM13.3336 11.7277C13.1296 11.7277 12.9557 11.6558 12.812 11.5122C12.6683 11.3685 12.5965 11.1946 12.5965 10.9905C12.5965 10.7865 12.6683 10.6126 12.812 10.4689C12.9557 10.3252 13.1296 10.2534 13.3336 10.2534C13.5377 10.2534 13.7116 10.3252 13.8553 10.4689C13.999 10.6126 14.0708 10.7865 14.0708 10.9905C14.0708 11.1946 13.999 11.3685 13.8553 11.5122C13.7116 11.6558 13.5377 11.7277 13.3336 11.7277ZM10.0003 14.9969C9.79625 14.9969 9.62237 14.9251 9.47868 14.7814C9.33499 14.6377 9.26314 14.4638 9.26314 14.2598C9.26314 14.0557 9.33499 13.8818 9.47868 13.7381C9.62237 13.5944 9.79625 13.5226 10.0003 13.5226C10.2044 13.5226 10.3782 13.5944 10.5219 13.7381C10.6656 13.8818 10.7375 14.0557 10.7375 14.2598C10.7375 14.4638 10.6656 14.6377 10.5219 14.7814C10.3782 14.9251 10.2044 14.9969 10.0003 14.9969ZM6.66697 14.9969C6.46292 14.9969 6.28904 14.9251 6.14535 14.7814C6.00165 14.6377 5.9298 14.4638 5.9298 14.2598C5.9298 14.0557 6.00165 13.8818 6.14535 13.7381C6.28904 13.5944 6.46292 13.5226 6.66697 13.5226C6.87103 13.5226 7.0449 13.5944 7.1886 13.7381C7.33229 13.8818 7.40414 14.0557 7.40414 14.2598C7.40414 14.4638 7.33229 14.6377 7.1886 14.7814C7.0449 14.9251 6.87103 14.9969 6.66697 14.9969ZM13.3336 14.9969C13.1296 14.9969 12.9557 14.9251 12.812 14.7814C12.6683 14.6377 12.5965 14.4638 12.5965 14.2598C12.5965 14.0557 12.6683 13.8818 12.812 13.7381C12.9557 13.5944 13.1296 13.5226 13.3336 13.5226C13.5377 13.5226 13.7116 13.5944 13.8553 13.7381C13.999 13.8818 14.0708 14.0557 14.0708 14.2598C14.0708 14.4638 13.999 14.6377 13.8553 14.7814C13.7116 14.9251 13.5377 14.9969 13.3336 14.9969Z" fill="#C9C9F1"/>
</g>
</svg>
