<svg width="27" height="34" viewBox="0 0 27 34" fill="none" xmlns="http://www.w3.org/2000/svg">
<g id="Group">
<g id="Group_2">
<g id="Group_3">
<path id="Vector" d="M23.3236 4.7385H20.3172V3.39356C20.3172 2.95843 19.8426 2.76066 19.4074 2.76066H17.0736C16.5198 1.17836 15.1353 0.387205 13.553 0.387205C11.9881 0.328374 10.5647 1.28792 10.0323 2.76066H7.73801C7.30287 2.76066 6.86774 2.95843 6.86774 3.39356V4.7385H3.8613C2.07972 4.7575 0.622193 6.16293 0.538452 7.94262V30.609C0.538452 32.3496 2.12075 33.6154 3.8613 33.6154H23.3236C25.0641 33.6154 26.6464 32.3496 26.6464 30.609V7.9427C26.5627 6.16293 25.1052 4.7575 23.3236 4.7385ZM8.44996 4.34296H10.6256C11.0054 4.29662 11.3105 4.00769 11.3773 3.63093C11.6115 2.61074 12.5066 1.87842 13.553 1.85086C14.5897 1.88228 15.4712 2.61687 15.689 3.63093C15.76 4.02071 16.0852 4.31335 16.4802 4.34296H18.735V7.50756H8.44996V4.34296ZM25.0641 30.6091C25.0641 31.4794 24.1939 32.0332 23.3236 32.0332H3.8613C2.99103 32.0332 2.12075 31.4794 2.12075 30.6091V7.9427C2.20147 7.03684 2.95196 6.33746 3.8613 6.32087H6.86766V8.33831C6.90945 8.78155 7.29333 9.11311 7.73793 9.08994H19.4074C19.8601 9.1147 20.256 8.78768 20.3172 8.33831V6.3208H23.3235C24.2328 6.33746 24.9833 7.03676 25.0641 7.94262V30.6091H25.0641Z" fill="white"/>
<path id="Vector_2" d="M10.5465 18.0694C10.2498 17.7566 9.75721 17.739 9.43891 18.0299L6.90721 20.4429L5.83917 19.3352C5.54244 19.0224 5.04983 19.0049 4.73152 19.2957C4.4251 19.6167 4.4251 20.1218 4.73152 20.4429L6.35335 22.1043C6.49373 22.2615 6.69649 22.3484 6.90713 22.3416C7.1158 22.3387 7.31486 22.2534 7.46092 22.1043L10.5464 19.177C10.8523 18.8964 10.8727 18.421 10.5921 18.1151C10.5777 18.0992 10.5624 18.0839 10.5465 18.0694Z" fill="white"/>
<path id="Vector_3" d="M21.8996 19.7704H12.8014C12.3645 19.7704 12.0103 20.1246 12.0103 20.5615C12.0103 20.9985 12.3645 21.3527 12.8014 21.3527H21.8996C22.3366 21.3527 22.6908 20.9985 22.6908 20.5615C22.6908 20.1246 22.3366 19.7704 21.8996 19.7704Z" fill="white"/>
<path id="Vector_4" d="M10.5465 11.7402C10.2498 11.4274 9.75721 11.4098 9.43891 11.7007L6.90721 14.1136L5.83917 13.006C5.54244 12.6932 5.04983 12.6756 4.73152 12.9665C4.4251 13.2875 4.4251 13.7926 4.73152 14.1136L6.35335 15.7751C6.49373 15.9322 6.69649 16.0192 6.90713 16.0124C7.1158 16.0095 7.31486 15.9241 7.46092 15.7751L10.5464 12.8478C10.8523 12.5672 10.8727 12.0917 10.5921 11.7859C10.5777 11.7699 10.5624 11.7547 10.5465 11.7402Z" fill="white"/>
<path id="Vector_5" d="M21.8996 13.4412H12.8014C12.3645 13.4412 12.0103 13.7954 12.0103 14.2323C12.0103 14.6693 12.3645 15.0235 12.8014 15.0235H21.8996C22.3366 15.0235 22.6908 14.6693 22.6908 14.2323C22.6908 13.7954 22.3366 13.4412 21.8996 13.4412Z" fill="white"/>
<path id="Vector_6" d="M10.5465 24.3985C10.2498 24.0858 9.75721 24.0682 9.43891 24.359L6.90721 26.772L5.83917 25.6643C5.54244 25.3516 5.04983 25.334 4.73152 25.6248C4.4251 25.9459 4.4251 26.451 4.73152 26.772L6.35335 28.4334C6.49373 28.5906 6.69649 28.6775 6.90713 28.6708C7.1158 28.6678 7.31486 28.5825 7.46092 28.4334L10.5464 25.5062C10.8523 25.2256 10.8727 24.7501 10.5921 24.4443C10.5777 24.4284 10.5624 24.4131 10.5465 24.3985Z" fill="white"/>
<path id="Vector_7" d="M21.8996 26.0995H12.8014C12.3645 26.0995 12.0103 26.4537 12.0103 26.8907C12.0103 27.3277 12.3645 27.6818 12.8014 27.6818H21.8996C22.3366 27.6818 22.6908 27.3277 22.6908 26.8907C22.6908 26.4537 22.3366 26.0995 21.8996 26.0995Z" fill="white"/>
</g>
</g>
</g>
</svg>
