<svg width="20" height="20" viewBox="0 0 20 20" fill="none" xmlns="http://www.w3.org/2000/svg">
<mask id="mask0_1971_3166" style="mask-type:alpha" maskUnits="userSpaceOnUse" x="0" y="-1" width="20" height="21">
<rect y="-0.00317383" width="20" height="20" fill="#D9D9D9"/>
</mask>
<g mask="url(#mask0_1971_3166)">
<path d="M11.042 6.73997V3.67098C11.042 3.45361 11.1144 3.27308 11.2592 3.12938C11.4041 2.98567 11.5835 2.91382 11.7976 2.91382H16.3314C16.5455 2.91382 16.7244 2.98567 16.8681 3.12938C17.0118 3.27308 17.0836 3.45361 17.0836 3.67098V6.73997C17.0836 6.95735 17.0112 7.1379 16.8664 7.28159C16.7215 7.42528 16.5421 7.49713 16.328 7.49713H11.7942C11.5801 7.49713 11.4012 7.42528 11.2575 7.28159C11.1138 7.1379 11.042 6.95735 11.042 6.73997ZM2.91699 9.66376V3.66367C2.91699 3.45117 2.98941 3.27308 3.13424 3.12938C3.27908 2.98567 3.45854 2.91382 3.67264 2.91382H8.20639C8.42049 2.91382 8.59938 2.9857 8.74308 3.12946C8.88677 3.27321 8.95862 3.45134 8.95862 3.66384V9.66392C8.95862 9.87642 8.88621 10.0545 8.74139 10.1982C8.59655 10.3419 8.41709 10.4138 8.20299 10.4138H3.66922C3.45514 10.4138 3.27625 10.3419 3.13255 10.1981C2.98885 10.0544 2.91699 9.87626 2.91699 9.66376ZM11.042 16.3304V10.3303C11.042 10.1178 11.1144 9.93974 11.2592 9.79605C11.4041 9.65234 11.5835 9.58049 11.7976 9.58049H16.3314C16.5455 9.58049 16.7244 9.65237 16.8681 9.79613C17.0118 9.93988 17.0836 10.118 17.0836 10.3305V16.3306C17.0836 16.5431 17.0112 16.7212 16.8664 16.8649C16.7215 17.0086 16.5421 17.0804 16.328 17.0804H11.7942C11.5801 17.0804 11.4012 17.0086 11.2575 16.8648C11.1138 16.721 11.042 16.5429 11.042 16.3304ZM2.91699 16.3233V13.2543C2.91699 13.0369 2.98941 12.8564 3.13424 12.7127C3.27908 12.569 3.45854 12.4971 3.67264 12.4971H8.20639C8.42049 12.4971 8.59938 12.569 8.74308 12.7127C8.88677 12.8564 8.95862 13.0369 8.95862 13.2543V16.3233C8.95862 16.5407 8.88621 16.7212 8.74139 16.8649C8.59655 17.0086 8.41709 17.0804 8.20299 17.0804H3.66922C3.45514 17.0804 3.27625 17.0086 3.13255 16.8649C2.98885 16.7212 2.91699 16.5407 2.91699 16.3233ZM4.16697 9.1638H7.70866V4.1638H4.16697V9.1638ZM12.292 15.8305H15.8336V10.8305H12.292V15.8305ZM12.292 6.24715H15.8336V4.1638H12.292V6.24715ZM4.16697 15.8305H7.70866V13.7471H4.16697V15.8305Z" fill="#5A58B9"/>
</g>
</svg>
