<svg width="16" height="16" viewBox="0 0 16 16" fill="none" xmlns="http://www.w3.org/2000/svg">
<path d="M8.00041 11.9583C8.17758 11.9583 8.32599 11.8984 8.44564 11.7786C8.5653 11.6589 8.62512 11.5104 8.62512 11.3334V7.79167C8.62512 7.6146 8.56521 7.46617 8.44537 7.34637C8.32552 7.22658 8.17702 7.16669 7.99987 7.16669C7.82271 7.16669 7.6743 7.22658 7.55464 7.34637C7.43499 7.46617 7.37516 7.6146 7.37516 7.79167V11.3334C7.37516 11.5104 7.43508 11.6589 7.55491 11.7786C7.67476 11.8984 7.82326 11.9583 8.00041 11.9583ZM8.00014 5.74042C8.19085 5.74042 8.35071 5.67592 8.4797 5.54692C8.6087 5.41792 8.6732 5.25806 8.6732 5.06735C8.6732 4.87666 8.6087 4.71681 8.4797 4.58779C8.35071 4.45879 8.19085 4.39429 8.00014 4.39429C7.80943 4.39429 7.64958 4.45879 7.52058 4.58779C7.39158 4.71681 7.32708 4.87666 7.32708 5.06735C7.32708 5.25806 7.39158 5.41792 7.52058 5.54692C7.64958 5.67592 7.80943 5.74042 8.00014 5.74042ZM8.00154 15.9167C6.90659 15.9167 5.8774 15.7089 4.91395 15.2933C3.9505 14.8778 3.11243 14.3138 2.39975 13.6015C1.68705 12.8891 1.12284 12.0514 0.7071 11.0884C0.291364 10.1253 0.0834961 9.09636 0.0834961 8.00142C0.0834961 6.90647 0.291274 5.87728 0.70683 4.91383C1.12239 3.95037 1.68634 3.11231 2.3987 2.39963C3.11108 1.68693 3.94878 1.12272 4.91181 0.706979C5.87482 0.291243 6.9038 0.083374 7.99875 0.083374C9.09369 0.083374 10.1229 0.291153 11.0863 0.706708C12.0498 1.12226 12.8879 1.68622 13.6005 2.39858C14.3132 3.11096 14.8774 3.94866 15.2932 4.91169C15.7089 5.8747 15.9168 6.90368 15.9168 7.99863C15.9168 9.09357 15.709 10.1228 15.2935 11.0862C14.8779 12.0497 14.3139 12.8877 13.6016 13.6004C12.8892 14.3131 12.0515 14.8773 11.0885 15.2931C10.1255 15.7088 9.09648 15.9167 8.00154 15.9167ZM8.00014 14.6667C9.86125 14.6667 11.4376 14.0209 12.7293 12.7292C14.021 11.4375 14.6668 9.86113 14.6668 8.00002C14.6668 6.13891 14.021 4.56252 12.7293 3.27085C11.4376 1.97919 9.86125 1.33335 8.00014 1.33335C6.13903 1.33335 4.56264 1.97919 3.27098 3.27085C1.97931 4.56252 1.33348 6.13891 1.33348 8.00002C1.33348 9.86113 1.97931 11.4375 3.27098 12.7292C4.56264 14.0209 6.13903 14.6667 8.00014 14.6667Z" fill="#D32F2F"/>
</svg>
