<svg width="20" height="20" viewBox="0 0 20 20" fill="none" xmlns="http://www.w3.org/2000/svg">
<mask id="mask0_1971_3201" style="mask-type:alpha" maskUnits="userSpaceOnUse" x="0" y="-1" width="20" height="21">
<rect y="-0.00317383" width="20" height="20" fill="#D9D9D9"/>
</mask>
<g mask="url(#mask0_1971_3201)">
<path d="M9.99049 14.6759C10.2284 14.6759 10.4294 14.5938 10.5934 14.4295C10.7574 14.2652 10.8394 14.0641 10.8394 13.8261C10.8394 13.5882 10.7572 13.3872 10.5929 13.2233C10.4287 13.0593 10.2275 12.9773 9.98959 12.9773C9.75165 12.9773 9.55068 13.0594 9.3867 13.2237C9.2227 13.388 9.1407 13.5891 9.1407 13.827C9.1407 14.065 9.22284 14.266 9.38713 14.43C9.55143 14.5939 9.75254 14.6759 9.99049 14.6759ZM10.001 17.9131C8.90611 17.9131 7.87691 17.7053 6.91347 17.2898C5.95001 16.8742 5.11194 16.3103 4.39926 15.5979C3.68656 14.8855 3.12235 14.0478 2.70661 13.0848C2.29088 12.1218 2.08301 11.0928 2.08301 9.99788C2.08301 8.90293 2.29079 7.87374 2.70634 6.91029C3.1219 5.94683 3.68586 5.10877 4.39822 4.39609C5.11059 3.68339 5.94829 3.11918 6.91132 2.70344C7.87433 2.2877 8.90331 2.07983 9.99826 2.07983C11.0932 2.07983 12.1224 2.28761 13.0858 2.70317C14.0493 3.11872 14.8874 3.68268 15.6001 4.39504C16.3127 5.10742 16.877 5.94512 17.2927 6.90815C17.7084 7.87116 17.9163 8.90014 17.9163 9.99509C17.9163 11.09 17.7085 12.1192 17.293 13.0827C16.8774 14.0461 16.3135 14.8842 15.6011 15.5969C14.8887 16.3096 14.051 16.8738 13.088 17.2895C12.125 17.7053 11.096 17.9131 10.001 17.9131ZM9.99965 16.6631C11.8608 16.6631 13.4372 16.0173 14.7288 14.7256C16.0205 13.434 16.6663 11.8576 16.6663 9.99648C16.6663 8.13537 16.0205 6.55898 14.7288 5.26731C13.4372 3.97565 11.8608 3.32981 9.99965 3.32981C8.13854 3.32981 6.56215 3.97565 5.27049 5.26731C3.97882 6.55898 3.33299 8.13537 3.33299 9.99648C3.33299 11.8576 3.97882 13.434 5.27049 14.7256C6.56215 16.0173 8.13854 16.6631 9.99965 16.6631ZM10.0672 6.42917C10.4516 6.42917 10.7844 6.5502 11.0654 6.79227C11.3463 7.03434 11.4868 7.33693 11.4868 7.70002C11.4868 8.00558 11.3971 8.27908 11.2176 8.52052C11.0381 8.76198 10.833 8.98688 10.6022 9.19521C10.2997 9.46356 10.0334 9.75875 9.80324 10.0808C9.57308 10.4028 9.44999 10.7614 9.43397 11.1568C9.42862 11.3084 9.48204 11.4356 9.59422 11.5381C9.7064 11.6407 9.83727 11.692 9.98684 11.692C10.1471 11.692 10.2828 11.6386 10.3939 11.5317C10.505 11.4249 10.576 11.294 10.607 11.1391C10.6626 10.8528 10.7809 10.5977 10.962 10.3739C11.1431 10.1501 11.3392 9.93723 11.5505 9.7354C11.8542 9.43937 12.1193 9.11659 12.3458 8.76706C12.5723 8.41752 12.6855 8.02765 12.6855 7.59746C12.6855 6.93721 12.4254 6.39474 11.9051 5.97006C11.3848 5.54538 10.7774 5.33304 10.083 5.33304C9.58727 5.33304 9.11986 5.44282 8.68076 5.66238C8.24166 5.88192 7.89978 6.20216 7.65511 6.62311C7.57927 6.75237 7.55492 6.88843 7.58207 7.03129C7.60922 7.17414 7.68254 7.28261 7.80201 7.35669C7.95408 7.44134 8.11024 7.4655 8.27049 7.42917C8.43074 7.39285 8.56695 7.30151 8.67913 7.15515C8.84794 6.93612 9.05227 6.76037 9.29211 6.6279C9.53196 6.49541 9.79031 6.42917 10.0672 6.42917Z" fill="#C9C9F1"/>
</g>
</svg>
