<svg width="22" height="19" viewBox="0 0 22 19" fill="none" xmlns="http://www.w3.org/2000/svg">
<path d="M3.74132 17.5785L18.8835 0.764404M20.544 8.54498C20.848 8.97128 21 9.18448 21 9.49998C21 9.81548 20.848 10.0287 20.544 10.455C19.1779 12.3706 15.6892 16.5 11 16.5C6.31078 16.5 2.8221 12.3706 1.45604 10.455C1.15201 10.0287 1 9.81548 1 9.49998C1 9.18448 1.15201 8.97128 1.45604 8.54498C2.8221 6.62938 6.31078 2.49998 11 2.49998C15.6892 2.49998 19.1779 6.62938 20.544 8.54498ZM14 9.49997C14 7.84307 12.6569 6.49997 11 6.49997C9.34308 6.49997 7.99998 7.84307 7.99998 9.49997C7.99998 11.1569 9.34308 12.5 11 12.5C12.6569 12.5 14 11.1569 14 9.49997Z" stroke="#3C3C3C" stroke-width="1.5"/>
</svg>
