<svg width="20" height="20" viewBox="0 0 20 20" fill="none" xmlns="http://www.w3.org/2000/svg">
<mask id="mask0_1971_3191" style="mask-type:alpha" maskUnits="userSpaceOnUse" x="0" y="-1" width="20" height="21">
<rect y="-0.00317383" width="20" height="20" fill="#D9D9D9"/>
</mask>
<g mask="url(#mask0_1971_3191)">
<path d="M3.58942 16.2468C3.16848 16.2468 2.81217 16.101 2.52051 15.8093C2.22884 15.5176 2.08301 15.1613 2.08301 14.7404V5.25324C2.08301 4.8323 2.22884 4.47599 2.52051 4.18433C2.81217 3.89266 3.16848 3.74683 3.58942 3.74683H16.4099C16.8308 3.74683 17.1871 3.89266 17.4788 4.18433C17.7705 4.47599 17.9163 4.8323 17.9163 5.25324V14.7404C17.9163 15.1613 17.7705 15.5176 17.4788 15.8093C17.1871 16.101 16.8308 16.2468 16.4099 16.2468H3.58942ZM16.6663 6.1987L10.4051 10.2067C10.341 10.243 10.2748 10.2716 10.2064 10.2925C10.138 10.3133 10.0691 10.3237 9.99965 10.3237C9.93021 10.3237 9.8613 10.3133 9.79293 10.2925C9.72455 10.2716 9.65831 10.243 9.59422 10.2067L3.33299 6.1987V14.7404C3.33299 14.8152 3.35703 14.8766 3.40511 14.9247C3.4532 14.9728 3.51463 14.9968 3.58942 14.9968H16.4099C16.4847 14.9968 16.5461 14.9728 16.5942 14.9247C16.6423 14.8766 16.6663 14.8152 16.6663 14.7404V6.1987ZM9.99965 9.16347L16.5381 4.99681H3.4612L9.99965 9.16347ZM3.33299 6.39099V5.43831V5.46314V5.4367V6.39099Z" fill="#C9C9F1"/>
</g>
</svg>
