<svg width="16" height="20" viewBox="0 0 16 20" fill="none" xmlns="http://www.w3.org/2000/svg">
<path d="M1.25003 16.8846C1.03753 16.8846 0.859406 16.8127 0.715656 16.6689C0.571906 16.5251 0.500031 16.3469 0.500031 16.1343C0.500031 15.9217 0.571906 15.7436 0.715656 15.6C0.859406 15.4564 1.03753 15.3847 1.25003 15.3847H2.30773V7.92308C2.30773 6.57821 2.72279 5.38912 3.55291 4.35578C4.38304 3.32245 5.44875 2.66156 6.75003 2.37311V1.75003C6.75003 1.40281 6.87145 1.10768 7.11428 0.864632C7.35711 0.621565 7.65198 0.500031 7.99888 0.500031C8.34578 0.500031 8.64102 0.621565 8.8846 0.864632C9.12819 1.10768 9.24998 1.40281 9.24998 1.75003V2.37311C10.5513 2.66156 11.617 3.32245 12.4471 4.35578C13.2772 5.38912 13.6923 6.57821 13.6923 7.92308V15.3847H14.75C14.9625 15.3847 15.1406 15.4566 15.2844 15.6004C15.4281 15.7442 15.5 15.9224 15.5 16.135C15.5 16.3476 15.4281 16.5256 15.2844 16.6692C15.1406 16.8128 14.9625 16.8846 14.75 16.8846H1.25003ZM7.99831 19.6923C7.50072 19.6923 7.07533 19.5153 6.72213 19.1613C6.36893 18.8073 6.19233 18.3817 6.19233 17.8846H9.80768C9.80768 18.3833 9.63051 18.8093 9.27618 19.1625C8.92185 19.5157 8.49589 19.6923 7.99831 19.6923ZM3.80768 15.3847H12.1923V7.92308C12.1923 6.76538 11.783 5.77724 10.9644 4.95866C10.1458 4.14006 9.15771 3.73076 8.00001 3.73076C6.84231 3.73076 5.85416 4.14006 5.03558 4.95866C4.21698 5.77724 3.80768 6.76538 3.80768 7.92308V15.3847Z" fill="#3C3C3C"/>
</svg>
