<svg width="20" height="20" viewBox="0 0 20 20" fill="none" xmlns="http://www.w3.org/2000/svg">
<mask id="mask0_1971_3176" style="mask-type:alpha" maskUnits="userSpaceOnUse" x="0" y="-1" width="20" height="21">
<rect y="-0.00317383" width="20" height="20" fill="#D9D9D9"/>
</mask>
<g mask="url(#mask0_1971_3176)">
<path d="M4.42304 17.9135C4.00745 17.9135 3.65248 17.7663 3.35815 17.472C3.0638 17.1776 2.91663 16.8227 2.91663 16.4071V6.91995C2.91663 6.50435 3.0638 6.14939 3.35815 5.85505C3.65248 5.56071 4.00745 5.41353 4.42304 5.41353H6.24996C6.24996 4.37295 6.61481 3.48781 7.3445 2.75812C8.07421 2.02842 8.95935 1.66357 9.99994 1.66357C11.0405 1.66357 11.9257 2.02842 12.6554 2.75812C13.3851 3.48781 13.7499 4.37295 13.7499 5.41353H15.5768C15.9924 5.41353 16.3474 5.56071 16.6417 5.85505C16.9361 6.14939 17.0833 6.50435 17.0833 6.91995V16.4071C17.0833 16.8227 16.9361 17.1776 16.6417 17.472C16.3474 17.7663 15.9924 17.9135 15.5768 17.9135H4.42304ZM4.42304 16.6635H15.5768C15.6409 16.6635 15.6997 16.6368 15.7531 16.5834C15.8066 16.53 15.8333 16.4712 15.8333 16.4071V6.91995C15.8333 6.85584 15.8066 6.79707 15.7531 6.74364C15.6997 6.69022 15.6409 6.66351 15.5768 6.66351H4.42304C4.35893 6.66351 4.30016 6.69022 4.24673 6.74364C4.19331 6.79707 4.16661 6.85584 4.16661 6.91995V16.4071C4.16661 16.4712 4.19331 16.53 4.24673 16.5834C4.30016 16.6368 4.35893 16.6635 4.42304 16.6635ZM7.49994 5.41353H12.4999C12.4999 4.71909 12.2569 4.12881 11.7708 3.6427C11.2847 3.15659 10.6944 2.91353 9.99994 2.91353C9.30549 2.91353 8.71522 3.15659 8.2291 3.6427C7.74299 4.12881 7.49994 4.71909 7.49994 5.41353ZM9.98713 11.2468C10.9294 11.2468 11.7758 10.9279 12.5264 10.2901C13.2769 9.65228 13.6479 8.92845 13.6393 8.11862C13.6393 7.94662 13.5816 7.79999 13.4663 7.67874C13.3509 7.55748 13.2045 7.49685 13.0272 7.49685C12.8808 7.49685 12.7499 7.54732 12.6345 7.64828C12.5192 7.74924 12.4374 7.89 12.3894 8.07055C12.2686 8.63572 11.9807 9.09806 11.5256 9.45757C11.0705 9.81709 10.5576 9.99685 9.98713 9.99685C9.4166 9.99685 8.90164 9.81709 8.44225 9.45757C7.98285 9.09806 7.69706 8.63572 7.58488 8.07055C7.53679 7.88146 7.45933 7.73856 7.3525 7.64187C7.24567 7.54519 7.11907 7.49685 6.97271 7.49685C6.79536 7.49685 6.64686 7.55748 6.52721 7.67874C6.40756 7.79999 6.34773 7.94662 6.34773 8.11862C6.34773 8.92845 6.71872 9.65228 7.46069 10.2901C8.20267 10.9279 9.04482 11.2468 9.98713 11.2468Z" fill="#C9C9F1"/>
</g>
</svg>
