<svg width="20" height="20" viewBox="0 0 20 20" fill="none" xmlns="http://www.w3.org/2000/svg">
<mask id="mask0_1971_3186" style="mask-type:alpha" maskUnits="userSpaceOnUse" x="0" y="-1" width="20" height="21">
<rect y="-0.00317383" width="20" height="20" fill="#D9D9D9"/>
</mask>
<g mask="url(#mask0_1971_3186)">
<path d="M4.42312 17.9135C4.00753 17.9135 3.65256 17.7663 3.35823 17.472C3.06388 17.1776 2.91671 16.8227 2.91671 16.4071V7.07537C2.67205 6.9493 2.47201 6.77008 2.31656 6.5377C2.1611 6.30533 2.08337 6.03743 2.08337 5.73401V3.58662C2.08337 3.17102 2.23055 2.81605 2.52489 2.52172C2.81923 2.22737 3.17419 2.0802 3.58979 2.0802H16.4103C16.8258 2.0802 17.1808 2.22737 17.4751 2.52172C17.7695 2.81605 17.9167 3.17102 17.9167 3.58662V5.73401C17.9167 6.03743 17.8389 6.30533 17.6835 6.5377C17.528 6.77008 17.328 6.9493 17.0833 7.07537V16.4071C17.0833 16.8227 16.9362 17.1776 16.6418 17.472C16.3475 17.7663 15.9925 17.9135 15.5769 17.9135H4.42312ZM4.16669 7.24041V16.367C4.16669 16.4525 4.1974 16.5233 4.25883 16.5794C4.32028 16.6355 4.39641 16.6635 4.48723 16.6635H15.5769C15.6517 16.6635 15.7131 16.6395 15.7612 16.5914C15.8093 16.5433 15.8334 16.4819 15.8334 16.4071V7.24041H4.16669ZM3.58979 5.99045H16.4103C16.485 5.99045 16.5465 5.96641 16.5946 5.91833C16.6426 5.87024 16.6667 5.8088 16.6667 5.73401V3.58662C16.6667 3.51183 16.6426 3.45039 16.5946 3.4023C16.5465 3.35422 16.485 3.33018 16.4103 3.33018H3.58979C3.515 3.33018 3.45356 3.35422 3.40548 3.4023C3.3574 3.45039 3.33335 3.51183 3.33335 3.58662V5.73401C3.33335 5.8088 3.3574 5.87024 3.40548 5.91833C3.45356 5.96641 3.515 5.99045 3.58979 5.99045ZM8.26123 11.1907H11.7468C11.9188 11.1907 12.0607 11.1336 12.1723 11.0193C12.2839 10.9049 12.3398 10.7618 12.3398 10.5898C12.3398 10.4178 12.2839 10.2759 12.1723 10.1643C12.0607 10.0527 11.9188 9.99685 11.7468 9.99685H8.25323C8.08121 9.99685 7.93939 10.0527 7.82775 10.1643C7.71611 10.2759 7.66029 10.4178 7.66029 10.5898C7.66029 10.7618 7.71744 10.9049 7.83175 11.0193C7.94607 11.1336 8.08923 11.1907 8.26123 11.1907Z" fill="#C9C9F1"/>
</g>
</svg>
