<svg width="36" height="36" viewBox="0 0 36 36" fill="none" xmlns="http://www.w3.org/2000/svg">
<g id="Stats" clip-path="url(#clip0_1011_2647)">
<path id="Vector" d="M15.2578 25.6641C15.6459 25.6641 15.9609 25.349 15.9609 24.9609C15.9609 24.5728 15.6459 24.2578 15.2578 24.2578C14.8697 24.2578 14.5547 24.5728 14.5547 24.9609C14.5547 25.349 14.8697 25.6641 15.2578 25.6641Z" fill="white"/>
<path id="Vector_2" d="M0.276306 27.2862L8.71382 35.7237C8.98848 35.9984 9.43342 35.9984 9.70808 35.7237L14.3487 31.0831C14.6234 30.8085 14.6234 30.3635 14.3487 30.0888L14.1427 29.8829H24.2782C25.1683 29.8829 26.0179 29.5491 26.6729 28.941L35.203 20.9466C36.0195 20.1882 36.2901 18.9836 35.8759 17.9492C35.5765 17.2005 34.9651 16.6276 34.1988 16.3773C33.4323 16.1266 32.6009 16.2282 31.917 16.6556C31.9126 16.6583 30.0232 17.8981 30.0232 17.8981C30.0103 14.0867 27.7067 10.0223 24.5358 8.19252C24.7168 7.9846 24.8591 7.7385 24.9497 7.46302C25.3125 6.35917 24.7094 5.1644 23.6039 4.79938C23.5693 4.78785 23.5347 4.77769 23.5001 4.76697L25.3101 1.51557C25.4142 1.32852 25.4276 1.10413 25.346 0.906373C25.2647 0.708345 25.0977 0.558106 24.892 0.498505C23.5943 0.121124 22.2454 -0.0703125 20.8828 -0.0703125C19.5205 -0.0703125 18.1714 0.121125 16.8736 0.498231C16.6679 0.558106 16.5009 0.70807 16.4194 0.906099C16.3381 1.10413 16.3512 1.32852 16.4556 1.51557L18.2656 4.76697C18.2305 4.77796 18.1953 4.7884 18.1601 4.79993C17.0563 5.1644 16.4534 6.35889 16.8162 7.46357C16.9069 7.7385 17.0503 7.98378 17.2318 8.19197C14.0136 10.0489 11.7422 14.1551 11.7422 17.9297C11.7422 18.0327 11.7447 18.1343 11.748 18.2351C10.4887 18.5787 9.31779 19.2047 8.33314 20.0668L6.1963 21.9364L5.9112 21.6513C5.63654 21.3767 5.1916 21.3767 4.91694 21.6513L0.276306 26.292C0.00164786 26.5666 0.00164786 27.0116 0.276306 27.2862ZM18.1288 1.6301C19.0297 1.43454 19.9526 1.33594 20.8828 1.33594C21.8131 1.33594 22.736 1.43454 23.6371 1.6301L22.0702 4.44452C21.2803 4.33439 20.4849 4.33439 19.6958 4.44452L18.1288 1.6301ZM18.5991 6.13587C20.0418 5.66373 21.6148 5.62803 23.1647 6.13532C23.5336 6.257 23.7349 6.6558 23.6138 7.02384C23.5226 7.30097 23.2754 7.48911 22.9889 7.50587C21.6024 7.06504 20.1624 7.06422 18.7765 7.5045C18.7765 7.5045 18.7765 7.5045 18.7762 7.5045C18.4873 7.48637 18.242 7.2974 18.1519 7.02412C18.0308 6.65553 18.2321 6.25672 18.5991 6.13587ZM18.988 8.91679C20.2072 8.47761 21.4703 8.46717 22.6926 8.88713C25.9594 10.0105 28.6172 14.0669 28.6172 17.9297C28.6172 18.2571 28.5966 18.5691 28.556 18.8608L25.1763 21.0781C24.6531 20.4299 23.8601 20.0391 22.9922 20.0391H21.586V19.2151C22.4044 18.9248 22.9922 18.1431 22.9922 17.2266C22.9922 16.0634 22.046 15.1172 20.8828 15.1172C20.4953 15.1172 20.1797 14.8019 20.1797 14.4141C20.1797 14.0263 20.4953 13.711 20.8828 13.711C21.132 13.711 21.3948 13.8381 21.6434 14.0784C21.9224 14.3484 22.3676 14.341 22.6376 14.0622C22.9076 13.7832 22.9002 13.338 22.6212 13.068C22.2644 12.7225 21.9073 12.5272 21.586 12.4206V11.6016C21.586 11.2132 21.2712 10.8985 20.8828 10.8985C20.4945 10.8985 20.1797 11.2132 20.1797 11.6016V12.4256C19.3615 12.7159 18.7735 13.4975 18.7735 14.4141C18.7735 15.5773 19.7197 16.5235 20.8828 16.5235C21.2707 16.5235 21.586 16.8388 21.586 17.2266C21.586 17.6144 21.2707 17.9297 20.8828 17.9297C20.5824 17.9297 20.2583 17.7407 19.9699 17.3977C19.7199 17.1005 19.2764 17.0621 18.9792 17.312C18.682 17.5619 18.6435 18.0055 18.8935 18.3027C19.2692 18.7498 19.7114 19.0613 20.1797 19.2184V20.0391H19.9457C19.6002 20.0391 19.445 19.8139 19.2017 19.6565C17.716 18.543 15.8758 17.9297 14.0197 17.9297C13.7294 17.9297 13.4385 17.9448 13.149 17.9742C13.149 17.9594 13.1485 17.9448 13.1485 17.9297C13.1485 14.121 15.7681 10.078 18.988 8.91679ZM9.25929 21.1248C10.5804 19.968 12.2781 19.336 14.0197 19.336C15.5737 19.336 17.1142 19.8493 18.3574 20.7812C18.5367 20.8861 19.036 21.4453 19.9454 21.4453H22.9922C23.7926 21.4453 24.3985 22.096 24.3985 22.8516C24.3985 23.627 23.7676 24.2578 22.9922 24.2578H18.0703C17.682 24.2578 17.3672 24.5726 17.3672 24.961C17.3672 25.3493 17.682 25.6641 18.0703 25.6641H22.9922C24.5429 25.6641 25.8047 24.4023 25.8047 22.8516C25.8047 22.6904 25.7904 22.5313 25.7635 22.3748L32.6682 17.8446C32.9967 17.6416 33.3952 17.5941 33.7621 17.7138C34.1313 17.8347 34.426 18.1107 34.5702 18.4716C34.7731 18.9781 34.6457 19.5453 34.2436 19.9185L25.7138 27.9127C25.3221 28.2764 24.8124 28.4766 24.2782 28.4766H12.7365L7.19303 22.9329L9.25929 21.1248ZM5.41407 23.1427L12.8573 30.586L9.21095 34.2323L1.7677 26.7891L5.41407 23.1427Z" fill="white"/>
</g>
<defs>
<clipPath id="clip0_1011_2647">
<rect width="36" height="36" fill="white"/>
</clipPath>
</defs>
</svg>
