<svg width="20" height="20" viewBox="0 0 20 20" fill="none" xmlns="http://www.w3.org/2000/svg">
<mask id="mask0_1971_3171" style="mask-type:alpha" maskUnits="userSpaceOnUse" x="0" y="-1" width="20" height="21">
<rect y="-0.00317383" width="20" height="20" fill="#D9D9D9"/>
</mask>
<g mask="url(#mask0_1971_3171)">
<path d="M5.25642 17.9131C4.83547 17.9131 4.47917 17.7673 4.1875 17.4756C3.89583 17.184 3.75 16.8277 3.75 16.4067V3.58625C3.75 3.16531 3.89583 2.809 4.1875 2.51733C4.47917 2.22567 4.83547 2.07983 5.25642 2.07983H11.2516C11.4525 2.07983 11.6456 2.11883 11.8309 2.19683C12.0163 2.27482 12.1773 2.38219 12.3141 2.51894L15.8109 6.01569C15.9476 6.15245 16.055 6.31352 16.133 6.49888C16.211 6.68424 16.25 6.87734 16.25 7.07819V16.4067C16.25 16.8277 16.1041 17.184 15.8125 17.4756C15.5208 17.7673 15.1645 17.9131 14.7435 17.9131H5.25642ZM11.25 6.32658V3.32981H5.25642C5.19231 3.32981 5.13353 3.35652 5.0801 3.40994C5.02669 3.46337 4.99998 3.52214 4.99998 3.58625V16.4067C4.99998 16.4708 5.02669 16.5296 5.0801 16.583C5.13353 16.6364 5.19231 16.6631 5.25642 16.6631H14.7435C14.8077 16.6631 14.8664 16.6364 14.9199 16.583C14.9733 16.5296 15 16.4708 15 16.4067V7.07979H12.0032C11.7885 7.07979 11.6093 7.00794 11.4656 6.86423C11.3219 6.72054 11.25 6.54132 11.25 6.32658Z" fill="#C9C9F1"/>
</g>
</svg>
