<svg width="36" height="36" viewBox="0 0 36 36" fill="none" xmlns="http://www.w3.org/2000/svg">
<g id="Stats" clip-path="url(#clip0_1011_2858)">
<path id="Vector" d="M34.8001 22.8H29.7115C28.7869 19.0014 26.5722 15.6415 23.4457 13.2942C23.6579 13.0918 23.8171 12.8403 23.9093 12.5619C24.0015 12.2835 24.0239 11.9867 23.9746 11.6976C23.9252 11.4085 23.8056 11.1359 23.6262 10.9039C23.4469 10.6718 23.2132 10.4874 22.9459 10.3668L24.5059 4.85824C24.6082 4.50169 24.6264 4.12625 24.559 3.76148C24.4916 3.39672 24.3404 3.05257 24.1175 2.75613C23.8945 2.45969 23.6057 2.21905 23.274 2.05314C22.9422 1.88724 22.5764 1.80059 22.2055 1.80004H21.1201C20.8044 1.25168 20.3498 0.796207 19.8021 0.479497C19.2543 0.162788 18.6328 -0.00396729 18.0001 -0.00396729C17.3674 -0.00396729 16.7458 0.162788 16.1981 0.479497C15.6503 0.796207 15.1957 1.25168 14.8801 1.80004H13.7941C13.4235 1.80079 13.0582 1.88746 12.7268 2.05324C12.3954 2.21902 12.107 2.45939 11.8842 2.75547C11.6614 3.05154 11.5103 3.39525 11.4427 3.75959C11.3752 4.12393 11.393 4.49897 11.4949 4.85524L13.0549 10.3668C12.7874 10.4875 12.5537 10.672 12.3743 10.9042C12.1949 11.1364 12.0753 11.4091 12.026 11.6984C11.9768 11.9877 11.9994 12.2846 12.0918 12.5631C12.1843 12.8416 12.3438 13.0931 12.5563 13.2954C9.43718 15.6496 7.22373 19.0059 6.28809 22.8H1.80009C1.45195 22.7985 1.11091 22.8984 0.818612 23.0875C0.526317 23.2766 0.295429 23.5468 0.154155 23.8649C0.0128804 24.1831 -0.0326634 24.5356 0.023087 24.8792C0.0788374 25.2229 0.233468 25.5428 0.468089 25.8C0.167115 26.1272 6.71143e-05 26.5555 6.71143e-05 27C6.71143e-05 27.4446 0.167115 27.8729 0.468089 28.2C0.291207 28.3931 0.159025 28.6227 0.0809401 28.8727C0.00285513 29.1226 -0.0192155 29.3866 0.0162972 29.6461C0.05181 29.9055 0.144034 30.1539 0.286413 30.3736C0.428792 30.5933 0.617831 30.779 0.840089 30.9174C0.682651 31.1849 0.599628 31.4897 0.599628 31.8C0.599628 32.1104 0.682651 32.4152 0.840089 32.6826C0.509836 32.8902 0.256103 33.1996 0.11723 33.5641C-0.0216439 33.9285 -0.0381124 34.3283 0.0703127 34.703C0.178738 35.0777 0.406165 35.4069 0.71823 35.6409C1.03029 35.8749 1.41004 36.0009 1.80009 36H11.4001C11.7313 35.9989 12.0558 35.9062 12.3376 35.7321C12.6193 35.558 12.8475 35.3093 12.9967 35.0136C14.5847 35.6639 16.2841 35.999 18.0001 36H34.8001C35.1184 36 35.4236 35.8736 35.6486 35.6486C35.8737 35.4235 36.0001 35.1183 36.0001 34.8V24C36.0001 23.6818 35.8737 23.3766 35.6486 23.1515C35.4236 22.9265 35.1184 22.8 34.8001 22.8ZM34.8001 25.7148C34.3875 25.6075 34.011 25.392 33.7096 25.0906C33.4081 24.7891 33.1926 24.4126 33.0853 24H34.8001V25.7148ZM13.8001 12.6C13.641 12.6 13.4883 12.5368 13.3758 12.4243C13.2633 12.3118 13.2001 12.1592 13.2001 12C13.2001 11.8409 13.2633 11.6883 13.3758 11.5758C13.4883 11.4633 13.641 11.4 13.8001 11.4H22.2001C22.3592 11.4 22.5118 11.4633 22.6244 11.5758C22.7369 11.6883 22.8001 11.8409 22.8001 12C22.8001 12.1592 22.7369 12.3118 22.6244 12.4243C22.5118 12.5368 22.3592 12.6 22.2001 12.6H13.8001ZM12.8437 3.47644C12.9538 3.32837 13.0971 3.20816 13.262 3.12543C13.4269 3.0427 13.609 2.99975 13.7935 3.00004H14.4535C14.4191 3.19821 14.4012 3.3989 14.4001 3.60004V6.00004C14.4001 6.15917 14.4633 6.31178 14.5758 6.4243C14.6883 6.53682 14.841 6.60004 15.0001 6.60004C15.1592 6.60004 15.3118 6.53682 15.4244 6.4243C15.5369 6.31178 15.6001 6.15917 15.6001 6.00004V3.60004C15.5991 3.26967 15.6669 2.94272 15.7993 2.64004C15.9859 2.21171 16.2935 1.84717 16.6844 1.59115C17.0752 1.33512 17.5323 1.19874 17.9995 1.19874C18.4667 1.19874 18.9238 1.33512 19.3146 1.59115C19.7054 1.84717 20.0131 2.21171 20.1997 2.64004C20.3325 2.94263 20.4007 3.26959 20.4001 3.60004V6.00004C20.4001 6.15917 20.4633 6.31178 20.5758 6.4243C20.6883 6.53682 20.841 6.60004 21.0001 6.60004C21.1592 6.60004 21.3118 6.53682 21.4244 6.4243C21.5369 6.31178 21.6001 6.15917 21.6001 6.00004V3.60004C21.5988 3.39888 21.5807 3.19819 21.5461 3.00004H22.2061C22.391 3.00146 22.573 3.04559 22.738 3.12897C22.903 3.21235 23.0465 3.33274 23.1574 3.48073C23.2682 3.62871 23.3433 3.80031 23.3769 3.98212C23.4104 4.16393 23.4016 4.35103 23.3509 4.52884L21.7465 10.2H14.2537L12.6487 4.52584C12.5969 4.34785 12.5876 4.16021 12.6215 3.97797C12.6554 3.79572 12.7315 3.62396 12.8437 3.47644ZM1.80009 24H11.4001C11.5592 24 11.7118 24.0633 11.8244 24.1758C11.9369 24.2883 12.0001 24.4409 12.0001 24.6C12.0001 24.7592 11.9369 24.9118 11.8244 25.0243C11.7118 25.1368 11.5592 25.2 11.4001 25.2H1.80009C1.64096 25.2 1.48835 25.1368 1.37583 25.0243C1.2633 24.9118 1.20009 24.7592 1.20009 24.6C1.20009 24.4409 1.2633 24.2883 1.37583 24.1758C1.48835 24.0633 1.64096 24 1.80009 24ZM1.80009 31.8C1.80009 31.6409 1.8633 31.4883 1.97583 31.3758C2.08835 31.2633 2.24096 31.2 2.40009 31.2H12.0001C12.1592 31.2 12.3118 31.2633 12.4244 31.3758C12.5369 31.4883 12.6001 31.6409 12.6001 31.8C12.6001 31.9592 12.5369 32.1118 12.4244 32.2243C12.3118 32.3368 12.1592 32.4 12.0001 32.4H2.40009C2.24096 32.4 2.08835 32.3368 1.97583 32.2243C1.8633 32.1118 1.80009 31.9592 1.80009 31.8ZM1.80009 30C1.64096 30 1.48835 29.9368 1.37583 29.8243C1.2633 29.7118 1.20009 29.5592 1.20009 29.4C1.20009 29.2409 1.2633 29.0883 1.37583 28.9758C1.48835 28.8633 1.64096 28.8 1.80009 28.8H11.4001C11.5592 28.8 11.7118 28.8633 11.8244 28.9758C11.9369 29.0883 12.0001 29.2409 12.0001 29.4C12.0001 29.5592 11.9369 29.7118 11.8244 29.8243C11.7118 29.9368 11.5592 30 11.4001 30H1.80009ZM1.20009 27C1.20009 26.8409 1.2633 26.6883 1.37583 26.5758C1.48835 26.4633 1.64096 26.4 1.80009 26.4H11.4001C11.5592 26.4 11.7118 26.4633 11.8244 26.5758C11.9369 26.6883 12.0001 26.8409 12.0001 27C12.0001 27.1592 11.9369 27.3118 11.8244 27.4243C11.7118 27.5368 11.5592 27.6 11.4001 27.6H1.80009C1.64096 27.6 1.48835 27.5368 1.37583 27.4243C1.2633 27.3118 1.20009 27.1592 1.20009 27ZM11.4001 34.8H1.80009C1.64096 34.8 1.48835 34.7368 1.37583 34.6243C1.2633 34.5118 1.20009 34.3592 1.20009 34.2C1.20009 34.0409 1.2633 33.8883 1.37583 33.7758C1.48835 33.6633 1.64096 33.6 1.80009 33.6H11.4001C11.5592 33.6 11.7118 33.6633 11.8244 33.7758C11.9369 33.8883 12.0001 34.0409 12.0001 34.2C12.0001 34.3592 11.9369 34.5118 11.8244 34.6243C11.7118 34.7368 11.5592 34.8 11.4001 34.8ZM13.1401 33.7656C13.1005 33.6088 13.04 33.4581 12.9601 33.3174C13.2174 33.1565 13.4295 32.9328 13.5765 32.6674C13.7236 32.402 13.8007 32.1035 13.8007 31.8C13.8007 31.4966 13.7236 31.1981 13.5765 30.9327C13.4295 30.6673 13.2174 30.4436 12.9601 30.2826C13.1505 29.957 13.2311 29.5787 13.1901 29.2037C13.149 28.8287 12.9884 28.4768 12.7321 28.2C13.0331 27.8729 13.2001 27.4446 13.2001 27C13.2001 26.5555 13.0331 26.1272 12.7321 25.8C12.9667 25.5428 13.1213 25.2229 13.1771 24.8792C13.2328 24.5356 13.1873 24.1831 13.046 23.8649C12.9048 23.5468 12.6739 23.2766 12.3816 23.0875C12.0893 22.8984 11.7482 22.7985 11.4001 22.8H7.51629C8.40309 19.2672 11.0689 15.5238 13.9711 13.8H22.0285C25.7113 15.9828 28.8001 21.162 28.8001 25.2C28.8001 30.4932 23.9551 34.8 18.0001 34.8C16.3256 34.7983 14.6701 34.4459 13.1401 33.7656ZM30.0001 25.2C29.9965 24.7988 29.969 24.3981 29.9179 24H31.8541C31.9798 24.7356 32.3307 25.4141 32.8584 25.9417C33.3861 26.4694 34.0645 26.8203 34.8001 26.946V31.854C34.0645 31.9798 33.3861 32.3307 32.8584 32.8583C32.3307 33.386 31.9798 34.0645 31.8541 34.8H23.4727C27.3427 33.0054 30.0001 29.3802 30.0001 25.2ZM33.0853 34.8C33.1926 34.3874 33.4081 34.011 33.7096 33.7095C34.011 33.4081 34.3875 33.1925 34.8001 33.0852V34.8H33.0853Z" fill="white"/>
<path id="Vector_2" d="M32.4001 31.2C32.7561 31.2 33.1041 31.0944 33.4001 30.8966C33.6961 30.6988 33.9268 30.4177 34.0631 30.0888C34.1993 29.7599 34.235 29.398 34.1655 29.0488C34.0961 28.6996 33.9246 28.3789 33.6729 28.1272C33.4212 27.8755 33.1004 27.704 32.7513 27.6346C32.4021 27.5651 32.0402 27.6008 31.7113 27.737C31.3824 27.8732 31.1012 28.1039 30.9035 28.4C30.7057 28.696 30.6001 29.044 30.6001 29.4C30.6001 29.8774 30.7897 30.3352 31.1273 30.6728C31.4649 31.0103 31.9227 31.2 32.4001 31.2ZM32.4001 28.8C32.5188 28.8 32.6348 28.8352 32.7334 28.9011C32.8321 28.967 32.909 29.0607 32.9544 29.1704C32.9998 29.28 33.0117 29.4006 32.9886 29.517C32.9654 29.6334 32.9083 29.7403 32.8244 29.8242C32.7405 29.9082 32.6335 29.9653 32.5172 29.9884C32.4008 30.0116 32.2801 29.9997 32.1705 29.9543C32.0609 29.9089 31.9671 29.832 31.9012 29.7333C31.8353 29.6346 31.8001 29.5186 31.8001 29.4C31.8001 29.2408 31.8633 29.0882 31.9758 28.9757C32.0884 28.8632 32.241 28.8 32.4001 28.8Z" fill="white"/>
<path id="Vector_3" d="M19.8001 21.6C19.8001 21.7591 19.8633 21.9117 19.9758 22.0243C20.0883 22.1368 20.2409 22.2 20.4001 22.2C20.5592 22.2 20.7118 22.1368 20.8243 22.0243C20.9369 21.9117 21.0001 21.7591 21.0001 21.6C20.9992 20.9087 20.76 20.2388 20.3228 19.7032C19.8857 19.1677 19.2772 18.7993 18.6001 18.66V18.6C18.6001 18.4409 18.5369 18.2883 18.4243 18.1757C18.3118 18.0632 18.1592 18 18.0001 18C17.8409 18 17.6883 18.0632 17.5758 18.1757C17.4633 18.2883 17.4001 18.4409 17.4001 18.6V18.66C16.7219 18.7977 16.1122 19.1656 15.6743 19.7014C15.2363 20.2373 14.9971 20.908 14.9971 21.6C14.9971 22.292 15.2363 22.9627 15.6743 23.4986C16.1122 24.0344 16.7219 24.4023 17.4001 24.54V28.0902C17.0502 27.9665 16.7472 27.7377 16.5324 27.4352C16.3175 27.1326 16.2015 26.7711 16.2001 26.4C16.2001 26.2409 16.1369 26.0883 16.0243 25.9757C15.9118 25.8632 15.7592 25.8 15.6001 25.8C15.4409 25.8 15.2883 25.8632 15.1758 25.9757C15.0633 26.0883 15.0001 26.2409 15.0001 26.4C15.001 27.0913 15.2401 27.7612 15.6773 28.2968C16.1145 28.8323 16.7229 29.2007 17.4001 29.34V29.4C17.4001 29.5591 17.4633 29.7117 17.5758 29.8243C17.6883 29.9368 17.8409 30 18.0001 30C18.1592 30 18.3118 29.9368 18.4243 29.8243C18.5369 29.7117 18.6001 29.5591 18.6001 29.4V29.34C19.2783 29.2023 19.888 28.8344 20.3259 28.2986C20.7638 27.7627 21.0031 27.092 21.0031 26.4C21.0031 25.708 20.7638 25.0373 20.3259 24.5014C19.888 23.9656 19.2783 23.5977 18.6001 23.46V19.9104C18.9498 20.034 19.2528 20.2627 19.4676 20.5652C19.6824 20.8676 19.7985 21.229 19.8001 21.6ZM16.2001 21.6C16.2016 21.229 16.3177 20.8676 16.5325 20.5652C16.7473 20.2627 17.0503 20.034 17.4001 19.9104V23.2896C17.0503 23.166 16.7473 22.9373 16.5325 22.6348C16.3177 22.3324 16.2016 21.971 16.2001 21.6ZM19.8001 26.4C19.7985 26.771 19.6824 27.1324 19.4676 27.4348C19.2528 27.7373 18.9498 27.966 18.6001 28.0896V24.7104C18.9498 24.834 19.2528 25.0627 19.4676 25.3652C19.6824 25.6676 19.7985 26.029 19.8001 26.4Z" fill="white"/>
</g>
<defs>
<clipPath id="clip0_1011_2858">
<rect width="36" height="36" fill="white"/>
</clipPath>
</defs>
</svg>
