<svg width="36" height="36" viewBox="0 0 36 36" fill="none" xmlns="http://www.w3.org/2000/svg">
<path d="M23.134 4.44845C22.7722 1.91256 20.5649 0 17.9998 0C16.3502 0 14.7836 0.79602 13.8095 2.13011C13.6106 2.40218 13.6701 2.78383 13.9422 2.98279C14.2133 3.18104 14.5959 3.12223 14.7945 2.8498C15.5401 1.82961 16.7381 1.2204 17.9997 1.2204C19.9614 1.2204 21.649 2.6823 21.9258 4.6206C21.9694 4.92502 22.2306 5.14472 22.5293 5.14472C22.5577 5.14472 22.587 5.14258 22.6161 5.13864C22.9497 5.09091 23.1816 4.78184 23.134 4.44845Z" fill="white"/>
<path d="M31.9466 11.2791L30.1161 8.22815C30.006 8.04421 29.8074 7.93195 29.5929 7.93195H27.8387C27.5019 7.93195 27.2286 8.20527 27.2286 8.54205C27.2286 8.87884 27.5019 9.15216 27.8387 9.15216H29.2475L30.3458 10.9827H5.6535L6.7518 9.15216H7.39802C7.7348 9.15216 8.00813 8.87884 8.00813 8.54205C8.00813 8.20527 7.7348 7.93195 7.39802 7.93195H6.40644C6.19192 7.93195 5.99332 8.04421 5.8832 8.22815L4.0527 11.2791C3.93954 11.4678 3.93686 11.7025 4.04501 11.8938C4.15316 12.0851 4.35588 12.2034 4.57593 12.2034H31.4234C31.6435 12.2034 31.846 12.0851 31.9543 11.8938C32.0626 11.7025 32.0598 11.4675 31.9466 11.2791Z" fill="white"/>
<path d="M28.9053 5.65297C28.8198 5.51514 28.6834 5.41736 28.5258 5.38054L20.2079 3.43509C20.0504 3.39808 19.8845 3.42561 19.7469 3.5107C19.6096 3.59615 19.5116 3.73255 19.4748 3.89021L18.8475 6.57162C18.7706 6.89964 18.9744 7.22785 19.3026 7.30435C19.6307 7.38122 19.9592 7.17743 20.0357 6.84923L20.5241 4.7622L27.6536 6.42986L26.5333 11.2197C26.4564 11.5478 26.6602 11.876 26.9884 11.9525C27.0355 11.9634 27.0821 11.9686 27.1282 11.9686C27.4053 11.9686 27.6561 11.7787 27.7214 11.4975L28.9807 6.11363C29.0179 5.95614 28.9907 5.79025 28.9053 5.65297Z" fill="white"/>
<path d="M18.3224 7.09535L17.7665 2.39306C17.7475 2.23235 17.6655 2.08559 17.5382 1.98548C17.4109 1.88538 17.2502 1.83962 17.0888 1.85856L6.88337 3.06484C6.54891 3.10452 6.30973 3.4077 6.34924 3.74252L7.27611 11.5853C7.31294 11.8958 7.57625 12.1241 7.88139 12.1241C7.90517 12.1241 7.92966 12.1224 7.95397 12.1198C8.28825 12.0801 8.52743 11.7769 8.48811 11.4421L7.63274 4.20479L16.6263 3.14188L17.1104 7.23818C17.1501 7.57282 17.4519 7.81057 17.7881 7.77267C18.1226 7.73334 18.3618 7.42999 18.3224 7.09535Z" fill="white"/>
<path d="M23.148 11.3613L21.9369 6.32487C21.899 6.16774 21.8002 6.0317 21.6623 5.94715C21.5245 5.86331 21.3592 5.83703 21.201 5.87457L11.3715 8.2385C11.0438 8.31715 10.8422 8.64679 10.9208 8.97446L11.5261 11.4918C11.6048 11.8198 11.9344 12.0216 12.2619 11.9424C12.5895 11.8638 12.7912 11.5341 12.7125 11.2065L12.2497 9.28228L20.8928 7.20401L21.9612 11.6469C22.0283 11.9267 22.2785 12.1144 22.554 12.1144C22.6014 12.1144 22.6493 12.1088 22.6974 12.0972C23.025 12.0184 23.2267 11.6889 23.148 11.3613Z" fill="white"/>
<path d="M32.0334 11.562C32.0166 11.2378 31.7488 10.9832 31.4239 10.9832H4.57638C4.25139 10.9832 3.98361 11.2376 3.96681 11.562L2.74641 35.3586C2.73783 35.5256 2.79825 35.689 2.91337 35.8102C3.02867 35.9312 3.18848 36 3.3558 36H32.6439C32.811 36 32.971 35.9314 33.0869 35.8102C33.2018 35.689 33.2622 35.5258 33.2538 35.3586L32.0334 11.562ZM3.99791 34.7796L5.15574 12.2034H30.8438L32.0016 34.7796H3.99791Z" fill="white"/>
<path d="M22.5761 13.4236C21.5667 13.4236 20.7456 14.2447 20.7456 15.2541C20.7456 16.2636 21.5667 17.0847 22.5761 17.0847C23.5856 17.0847 24.4066 16.2636 24.4066 15.2541C24.4066 14.2447 23.5856 13.4236 22.5761 13.4236ZM22.5761 15.8644C22.2395 15.8644 21.966 15.5908 21.966 15.2543C21.966 14.9179 22.2397 14.6442 22.5761 14.6442C22.9125 14.6442 23.1862 14.9179 23.1862 15.2543C23.1862 15.5908 22.9125 15.8644 22.5761 15.8644Z" fill="white"/>
<path d="M13.4235 13.4236C12.4141 13.4236 11.593 14.2447 11.593 15.2541C11.593 16.2636 12.4141 17.0847 13.4235 17.0847C14.433 17.0847 15.254 16.2636 15.254 15.2541C15.254 14.2447 14.433 13.4236 13.4235 13.4236ZM13.4235 15.8644C13.0871 15.8644 12.8134 15.5908 12.8134 15.2543C12.8134 14.9179 13.0871 14.6442 13.4235 14.6442C13.76 14.6442 14.0336 14.9179 14.0336 15.2543C14.0336 15.5908 13.76 15.8644 13.4235 15.8644Z" fill="white"/>
<path d="M22.5761 15.2542H22.5291C22.1923 15.2542 21.919 15.5275 21.919 15.8643C21.919 15.9476 21.9354 16.0271 21.966 16.0995V19.2201C21.966 21.4069 20.1868 23.1863 17.9998 23.1863C15.8129 23.1863 14.0337 21.4071 14.0337 19.2201V15.8644C14.0337 15.5277 13.7604 15.2543 13.4236 15.2543C13.0868 15.2543 12.8135 15.5277 12.8135 15.8644V19.2203C12.8135 22.0801 15.14 24.4067 17.9998 24.4067C20.8597 24.4067 23.1862 22.0801 23.1862 19.2203V15.8644C23.1862 15.5277 22.9129 15.2542 22.5761 15.2542Z" fill="white"/>
</svg>
