<svg width="20" height="20" viewBox="0 0 20 20" fill="none" xmlns="http://www.w3.org/2000/svg">
<mask id="mask0_1971_3206" style="mask-type:alpha" maskUnits="userSpaceOnUse" x="0" y="-1" width="20" height="21">
<rect y="-0.00317383" width="20" height="20" fill="#D9D9D9"/>
</mask>
<g mask="url(#mask0_1971_3206)">
<path d="M8.73414 17.9131C8.54717 17.9131 8.38531 17.8504 8.24856 17.7248C8.11181 17.5993 8.02954 17.443 8.00176 17.2561L7.75979 15.3747C7.53649 15.2999 7.30759 15.1952 7.07308 15.0606C6.83856 14.9259 6.62889 14.7817 6.44406 14.6279L4.70368 15.3618C4.52526 15.4398 4.34818 15.4489 4.17243 15.3891C3.99668 15.3292 3.85859 15.2171 3.75816 15.0525L2.50499 12.8699C2.4099 12.7053 2.38051 12.5296 2.41685 12.3426C2.45317 12.1557 2.54665 12.005 2.69728 11.8907L4.2037 10.7513C4.18447 10.6274 4.17084 10.5029 4.16283 10.3779C4.15481 10.2529 4.15081 10.1284 4.15081 10.0045C4.15081 9.88591 4.15481 9.76544 4.16283 9.64311C4.17084 9.52077 4.18447 9.38696 4.2037 9.24167L2.69728 8.10223C2.54665 7.98793 2.45183 7.83729 2.41285 7.65031C2.37385 7.46336 2.40456 7.28761 2.50499 7.12309L3.75816 4.95646C3.85859 4.79193 3.99535 4.67975 4.16843 4.61992C4.3415 4.56008 4.51724 4.56917 4.69566 4.64717L6.43603 5.37313C6.6369 5.21393 6.85138 5.06836 7.07947 4.93642C7.30758 4.80446 7.53168 4.69842 7.75176 4.61829L8.00176 2.7369C8.02954 2.54992 8.11181 2.39367 8.24856 2.26815C8.38531 2.1426 8.54717 2.07983 8.73414 2.07983H11.2581C11.4451 2.07983 11.6083 2.1426 11.7477 2.26815C11.8871 2.39367 11.9707 2.54992 11.9985 2.7369L12.2405 4.62631C12.4905 4.71712 12.7167 4.82315 12.9192 4.94442C13.1217 5.06568 13.326 5.20858 13.5322 5.37313L15.3046 4.64717C15.483 4.56917 15.6588 4.55875 15.8318 4.61592C16.0049 4.67307 16.1417 4.78391 16.2421 4.94844L17.4953 7.12309C17.5957 7.28761 17.6264 7.46336 17.5874 7.65031C17.5484 7.83729 17.4536 7.98793 17.303 8.10223L15.7645 9.26569C15.7945 9.40031 15.8107 9.52612 15.8134 9.64311C15.8161 9.76009 15.8174 9.87788 15.8174 9.99648C15.8174 10.1097 15.8147 10.2248 15.8094 10.3418C15.8041 10.4588 15.7848 10.5926 15.7517 10.7433L17.2741 11.8907C17.4248 12.005 17.5196 12.1557 17.5586 12.3426C17.5976 12.5296 17.5669 12.7053 17.4665 12.8699L16.2133 15.0397C16.1128 15.2042 15.9726 15.3172 15.7926 15.3786C15.6126 15.4401 15.4333 15.4318 15.2549 15.3538L13.5322 14.6198C13.326 14.7844 13.1155 14.9299 12.9008 15.0565C12.686 15.1832 12.4659 15.2865 12.2405 15.3666L11.9985 17.2561C11.9707 17.443 11.8871 17.5993 11.7477 17.7248C11.6083 17.8504 11.4451 17.9131 11.2581 17.9131H8.73414ZM9.16681 16.6631H10.8046L11.1043 14.4308C11.5295 14.3197 11.9181 14.1618 12.2702 13.9572C12.6222 13.7526 12.9617 13.4895 13.2886 13.168L15.3591 14.0381L16.1796 12.6215L14.3719 11.2593C14.4414 11.0435 14.4887 10.832 14.5138 10.6247C14.5389 10.4174 14.5514 10.208 14.5514 9.99648C14.5514 9.77961 14.5389 9.5702 14.5138 9.36827C14.4887 9.16636 14.4414 8.96016 14.3719 8.74969L16.1957 7.37148L15.3751 5.95481L13.2806 6.83784C13.0017 6.53975 12.6676 6.2764 12.2782 6.04777C11.8888 5.81913 11.4948 5.65727 11.0963 5.56219L10.8335 3.32981H9.17962L8.90399 5.55417C8.47877 5.6546 8.08614 5.80845 7.7261 6.01571C7.36606 6.22297 7.02258 6.49007 6.69566 6.817L4.62514 5.95481L3.80462 7.37148L5.60431 8.71284C5.53486 8.91047 5.48625 9.11613 5.45847 9.32981C5.43069 9.54349 5.41681 9.76839 5.41681 10.0045C5.41681 10.2214 5.43069 10.434 5.45847 10.6423C5.48625 10.8506 5.53219 11.0563 5.59628 11.2593L3.80462 12.6215L4.62514 14.0381L6.68764 13.1631C7.00387 13.4879 7.34201 13.754 7.70206 13.9612C8.0621 14.1685 8.46007 14.3277 8.89597 14.4388L9.16681 16.6631ZM10.0097 12.4965C10.7031 12.4965 11.2931 12.2531 11.7798 11.7665C12.2664 11.2799 12.5097 10.6898 12.5097 9.99648C12.5097 9.30312 12.2664 8.71311 11.7798 8.22646C11.2931 7.73982 10.7031 7.4965 10.0097 7.4965C9.30784 7.4965 8.7157 7.73982 8.23333 8.22646C7.75097 8.71311 7.50979 9.30312 7.50979 9.99648C7.50979 10.6898 7.75097 11.2799 8.23333 11.7665C8.7157 12.2531 9.30784 12.4965 10.0097 12.4965Z" fill="#C9C9F1"/>
</g>
</svg>
