<svg width="24" height="24" viewBox="0 0 24 24" fill="none" xmlns="http://www.w3.org/2000/svg">
<path d="M21.544 11.545C21.848 11.9713 22 12.1845 22 12.5C22 12.8155 21.848 13.0287 21.544 13.455C20.1779 15.3706 16.6892 19.5 12 19.5C7.3108 19.5 3.82212 15.3706 2.45606 13.455C2.15203 13.0287 2.00002 12.8155 2.00002 12.5C2.00002 12.1845 2.15203 11.9713 2.45606 11.545C3.82212 9.6294 7.3108 5.5 12 5.5C16.6892 5.5 20.1779 9.6294 21.544 11.545Z" stroke="#3C3C3C" stroke-width="1.5"/>
<path d="M15 12.5C15 10.8431 13.6569 9.5 12 9.5C10.3431 9.5 9 10.8431 9 12.5C9 14.1569 10.3431 15.5 12 15.5C13.6569 15.5 15 14.1569 15 12.5Z" stroke="#3C3C3C" stroke-width="1.5"/>
</svg>
