<svg width="15" height="15" viewBox="0 0 15 15" fill="none" xmlns="http://www.w3.org/2000/svg">
<path d="M5.9328 11.0128C4.50973 11.0128 3.30461 10.5192 2.31744 9.53206C1.33026 8.54488 0.83667 7.33975 0.83667 5.91668C0.83667 4.49361 1.33026 3.28849 2.31744 2.30131C3.30461 1.31414 4.50973 0.820557 5.9328 0.820557C7.35586 0.820557 8.56099 1.31414 9.54817 2.30131C10.5354 3.28849 11.0289 4.49361 11.0289 5.91668C11.0289 6.51177 10.929 7.08014 10.7293 7.62181C10.5295 8.16347 10.2629 8.63463 9.92957 9.03526L14.7245 13.8301C14.8398 13.9455 14.8989 14.0906 14.9015 14.2652C14.9042 14.4399 14.8452 14.5876 14.7245 14.7083C14.6037 14.8291 14.4574 14.8894 14.2854 14.8894C14.1134 14.8894 13.967 14.8291 13.8463 14.7083L9.05138 9.91345C8.63471 10.2575 8.15555 10.5267 7.61388 10.7211C7.07221 10.9156 6.51185 11.0128 5.9328 11.0128ZM5.9328 9.76285C7.00652 9.76285 7.91598 9.39025 8.66117 8.64506C9.40636 7.89986 9.77896 6.9904 9.77896 5.91668C9.77896 4.84296 9.40636 3.9335 8.66117 3.18831C7.91598 2.44311 7.00652 2.07051 5.9328 2.07051C4.85907 2.07051 3.94961 2.44311 3.20442 3.18831C2.45924 3.9335 2.08665 4.84296 2.08665 5.91668C2.08665 6.9904 2.45924 7.89986 3.20442 8.64506C3.94961 9.39025 4.85907 9.76285 5.9328 9.76285Z" fill="#8D8D8D"/>
</svg>
