<svg width="20" height="20" viewBox="0 0 20 20" fill="none" xmlns="http://www.w3.org/2000/svg">
<mask id="mask0_1971_3181" style="mask-type:alpha" maskUnits="userSpaceOnUse" x="0" y="-1" width="20" height="21">
<rect y="-0.00317383" width="20" height="20" fill="#D9D9D9"/>
</mask>
<g mask="url(#mask0_1971_3181)">
<path d="M4.99994 17.9134C4.41769 17.9134 3.9249 17.7118 3.52158 17.3085C3.11828 16.9052 2.91663 16.4124 2.91663 15.8301V14.5C2.91663 14.2853 2.98848 14.1061 3.13219 13.9624C3.27588 13.8187 3.4551 13.7468 3.66983 13.7468H5.41663V2.65228C5.41663 2.56575 5.45162 2.50779 5.52161 2.47841C5.59158 2.44903 5.65862 2.46105 5.72273 2.51447L6.3349 3.02247C6.40755 3.08444 6.48608 3.11543 6.57048 3.11543C6.65488 3.11543 6.7334 3.08444 6.80604 3.02247L7.50477 2.45197C7.57742 2.39 7.65595 2.35901 7.74033 2.35901C7.82474 2.35901 7.90326 2.39 7.97592 2.45197L8.67463 3.02247C8.74728 3.08444 8.82581 3.11543 8.91021 3.11543C8.99461 3.11543 9.07313 3.08444 9.14577 3.02247L9.8445 2.45197C9.91715 2.39 9.99568 2.35901 10.0801 2.35901C10.1645 2.35901 10.243 2.39 10.3156 2.45197L11.0144 3.02247C11.087 3.08444 11.1655 3.11543 11.2499 3.11543C11.3343 3.11543 11.4129 3.08444 11.4855 3.02247L12.1842 2.45197C12.2569 2.39 12.3354 2.35901 12.4198 2.35901C12.5042 2.35901 12.5827 2.39 12.6554 2.45197L13.3541 3.02247C13.4267 3.08444 13.5053 3.11543 13.5897 3.11543C13.6741 3.11543 13.7526 3.08444 13.8253 3.02247L14.524 2.45197C14.5966 2.39 14.6751 2.35901 14.7595 2.35901C14.8439 2.35901 14.9225 2.39 14.9951 2.45197L15.6938 3.02247C15.7665 3.08444 15.845 3.11543 15.9294 3.11543C16.0138 3.11543 16.0923 3.08444 16.165 3.02247L16.7771 2.51447C16.8413 2.46105 16.9083 2.44903 16.9783 2.47841C17.0483 2.50779 17.0833 2.56575 17.0833 2.65228V15.8301C17.0833 16.4124 16.8816 16.9052 16.4783 17.3085C16.075 17.7118 15.5822 17.9134 14.9999 17.9134H4.99994ZM14.9999 16.6635C15.2361 16.6635 15.434 16.5836 15.5937 16.4239C15.7534 16.2642 15.8333 16.0662 15.8333 15.8301V4.16347H6.66661V13.7468H13.4134C13.6281 13.7468 13.8074 13.8187 13.9511 13.9624C14.0948 14.1061 14.1666 14.2853 14.1666 14.5V15.8301C14.1666 16.0662 14.2465 16.2642 14.4062 16.4239C14.5659 16.5836 14.7638 16.6635 14.9999 16.6635ZM8.28519 6.03849H11.7628C11.9401 6.03849 12.0886 6.09832 12.2083 6.21797C12.3279 6.33762 12.3878 6.48612 12.3878 6.66347C12.3878 6.84082 12.3279 6.98931 12.2083 7.10897C12.0886 7.22862 11.9401 7.28845 11.7628 7.28845H8.28519C8.10784 7.28845 7.95934 7.22862 7.83969 7.10897C7.72004 6.98931 7.66021 6.84082 7.66021 6.66347C7.66021 6.48612 7.72004 6.33762 7.83969 6.21797C7.95934 6.09832 8.10784 6.03849 8.28519 6.03849ZM8.28519 8.53849H11.7628C11.9401 8.53849 12.0886 8.59832 12.2083 8.71797C12.3279 8.83762 12.3878 8.98612 12.3878 9.16347C12.3878 9.34082 12.3279 9.48932 12.2083 9.60897C12.0886 9.72862 11.9401 9.78845 11.7628 9.78845H8.28519C8.10784 9.78845 7.95934 9.72862 7.83969 9.60897C7.72004 9.48932 7.66021 9.34082 7.66021 9.16347C7.66021 8.98612 7.72004 8.83762 7.83969 8.71797C7.95934 8.59832 8.10784 8.53849 8.28519 8.53849ZM14.1185 7.40063C13.9145 7.40063 13.7406 7.32879 13.5969 7.18509C13.4532 7.0414 13.3814 6.86752 13.3814 6.66347C13.3814 6.45941 13.4532 6.28554 13.5969 6.14184C13.7406 5.99815 13.9145 5.9263 14.1185 5.9263C14.3226 5.9263 14.4965 5.99815 14.6401 6.14184C14.7838 6.28554 14.8557 6.45941 14.8557 6.66347C14.8557 6.86752 14.7838 7.0414 14.6401 7.18509C14.4965 7.32879 14.3226 7.40063 14.1185 7.40063ZM14.1185 9.90064C13.9145 9.90064 13.7406 9.82879 13.5969 9.68509C13.4532 9.5414 13.3814 9.36752 13.3814 9.16347C13.3814 8.95941 13.4532 8.78554 13.5969 8.64184C13.7406 8.49815 13.9145 8.4263 14.1185 8.4263C14.3226 8.4263 14.4965 8.49815 14.6401 8.64184C14.7838 8.78554 14.8557 8.95941 14.8557 9.16347C14.8557 9.36752 14.7838 9.5414 14.6401 9.68509C14.4965 9.82879 14.3226 9.90064 14.1185 9.90064ZM4.99994 16.6635H12.9166V14.9968H4.16661V15.8301C4.16661 16.0662 4.24647 16.2642 4.40619 16.4239C4.56591 16.5836 4.76383 16.6635 4.99994 16.6635Z" fill="#C9C9F1"/>
</g>
</svg>
