<svg width="5" height="14" viewBox="0 0 5 14" fill="none" xmlns="http://www.w3.org/2000/svg">
<path d="M2.49992 13.6667C2.04159 13.6667 1.64922 13.5035 1.32284 13.1771C0.996446 12.8507 0.833252 12.4584 0.833252 12C0.833252 11.5417 0.996446 11.1493 1.32284 10.823C1.64922 10.4966 2.04159 10.3334 2.49992 10.3334C2.95825 10.3334 3.35061 10.4966 3.677 10.823C4.00339 11.1493 4.16659 11.5417 4.16659 12C4.16659 12.4584 4.00339 12.8507 3.677 13.1771C3.35061 13.5035 2.95825 13.6667 2.49992 13.6667ZM2.49992 8.66671C2.04159 8.66671 1.64922 8.50351 1.32284 8.17712C0.996446 7.85074 0.833252 7.45837 0.833252 7.00004C0.833252 6.54171 0.996446 6.14935 1.32284 5.82296C1.64922 5.49657 2.04159 5.33337 2.49992 5.33337C2.95825 5.33337 3.35061 5.49657 3.677 5.82296C4.00339 6.14935 4.16659 6.54171 4.16659 7.00004C4.16659 7.45837 4.00339 7.85074 3.677 8.17712C3.35061 8.50351 2.95825 8.66671 2.49992 8.66671ZM2.49992 3.66671C2.04159 3.66671 1.64922 3.50351 1.32284 3.17712C0.996446 2.85074 0.833252 2.45837 0.833252 2.00004C0.833252 1.54171 0.996446 1.14935 1.32284 0.822957C1.64922 0.496568 2.04159 0.333374 2.49992 0.333374C2.95825 0.333374 3.35061 0.496568 3.677 0.822957C4.00339 1.14935 4.16659 1.54171 4.16659 2.00004C4.16659 2.45837 4.00339 2.85074 3.677 3.17712C3.35061 3.50351 2.95825 3.66671 2.49992 3.66671Z" fill="#3C3C3C"/>
</svg>
