<svg width="200" height="46" viewBox="0 0 200 46" fill="none" xmlns="http://www.w3.org/2000/svg">
<g clip-path="url(#clip0_946_14361)">
<path d="M20.4393 45.9998C19.1807 45.9993 17.9444 45.665 16.8542 45.0305L3.58511 37.3024C2.48947 36.6627 1.58086 35.7424 0.951287 34.6344C0.321716 33.5265 -0.00644716 32.2705 3.31113e-05 30.9934L0.0989809 15.1769C0.109656 13.9244 0.441144 12.6959 1.06127 11.6108C1.68139 10.5256 2.56908 9.62065 3.63817 8.98369L10.5789 4.8867L10.6807 20.9173C10.7237 23.5098 10.6893 26.1572 10.6549 28.7178C10.6319 30.422 10.609 32.1898 10.609 33.9099C10.609 35.0094 11.3117 35.6156 12.588 35.6156C13.9374 35.6156 14.7103 35.0065 14.7103 33.9461L14.6372 25.4483H14.858C16.7553 25.4483 18.6697 25.431 20.5196 25.4136C22.4455 25.3962 24.2653 25.3789 26.0765 25.3789L26.1123 30.7866V43.7936L24.0631 45.0045C22.9641 45.6548 21.7134 45.9983 20.4393 45.9998ZM30.1677 41.3965L30.0645 23.313C30.1003 18.5592 30.1003 16.6945 30.1003 12.6076C30.1318 12.3394 30.1018 12.0676 30.0129 11.8129C29.924 11.5582 29.7784 11.3274 29.5874 11.1383C29.3963 10.9492 29.1648 10.8067 28.9107 10.7219C28.6566 10.637 28.3866 10.612 28.1214 10.6488C27.849 10.6081 27.571 10.631 27.3088 10.7158C27.0466 10.8006 26.8072 10.9451 26.6091 11.138C26.4109 11.3308 26.2594 11.5671 26.166 11.8284C26.0727 12.0897 26.0401 12.3692 26.0707 12.6452C26.0707 13.6449 26.0779 15.0077 26.0865 16.4514C26.0965 18.1441 26.1066 20.0681 26.1066 21.7173L24.271 21.7535C23.293 21.7535 22.2031 21.7622 21.1491 21.7723C20.0951 21.7824 19.0311 21.7911 18.0846 21.7911C16.685 21.7911 15.8375 21.7752 15.2768 21.7636C14.9986 21.7636 14.7978 21.755 14.6315 21.755C14.6128 18.8703 14.6128 13.3512 14.6128 8.48314C14.6128 6.32614 14.6128 4.25161 14.6128 2.50258L17.164 0.995139C18.2566 0.349702 19.4993 0.00768898 20.7655 0.00387743C22.0317 6.58669e-05 23.2763 0.334591 24.3728 0.973438L37.6419 8.70159C38.7376 9.34113 39.6464 10.2615 40.2759 11.3694C40.9055 12.4774 41.2336 13.7335 41.227 15.0105L41.1295 30.8227C41.1189 32.0764 40.7872 33.306 40.1666 34.3922C39.546 35.4784 38.6575 36.3842 37.5874 37.0217L30.1763 41.4008L30.1677 41.3965Z" fill="#5A58B9"/>
<path d="M67.4454 23.8759C67.4798 19.3276 67.4798 17.4874 67.4798 13.6335C67.5098 13.3767 67.4812 13.1163 67.3963 12.8724C67.3113 12.6284 67.1722 12.4072 66.9896 12.2258C66.8069 12.0443 66.5856 11.9074 66.3425 11.8254C66.0994 11.7434 65.8409 11.7186 65.5869 11.7528C65.3263 11.714 65.0605 11.736 64.8097 11.8171C64.5589 11.8983 64.33 12.0364 64.1405 12.2209C63.951 12.4054 63.8059 12.6313 63.7166 12.8812C63.6272 13.1311 63.596 13.3984 63.6251 13.6624C63.6251 15.7456 63.6595 19.426 63.6595 22.3425L61.9043 22.3772C60.04 22.3772 57.8087 22.4119 55.9846 22.4119C53.9884 22.4119 53.1624 22.3772 52.6863 22.3772C52.6519 16.8567 52.6863 15.5026 52.6519 13.3499C52.6519 12.3083 51.8259 11.8569 50.7877 11.8569C49.4798 11.8569 48.7571 12.4125 48.7571 13.6277L48.9005 21.5844C48.9636 25.7161 48.8316 29.8825 48.8316 34.0143C48.8316 35.1947 49.6519 35.6461 50.7188 35.6461C51.8202 35.6461 52.7494 35.1947 52.7494 34.0548L52.6806 25.9244C56.3976 25.9244 60.1146 25.855 63.6251 25.855L63.6595 31.0283V33.9448C63.6595 35.0906 64.4511 35.6461 65.5869 35.6461C66.8603 35.6461 67.583 35.16 67.583 33.9448L67.4454 23.8759ZM75.4645 28.5285C79.5601 28.4937 81.9004 28.5285 83.8277 28.459C86.2369 28.4243 86.5123 27.5216 86.5123 25.7103C86.4014 23.9436 85.6142 22.2896 84.317 21.0975C83.0198 19.9055 81.314 19.2687 79.5601 19.3218C75.0859 19.3218 71.6442 23.2452 71.6442 28.106C71.674 30.1471 72.5 32.0941 73.9431 33.525C75.3862 34.9559 77.3301 35.7554 79.3536 35.7503C81.2975 35.8654 83.2302 35.381 84.8947 34.3615C85.1862 34.2061 85.4339 33.9786 85.6145 33.7002C85.7951 33.4219 85.9027 33.1019 85.9272 32.7701C85.9344 32.325 85.7768 31.8932 85.485 31.5593C85.1932 31.2253 84.7884 31.0133 84.3497 30.9647C83.8696 30.9872 83.405 31.1434 83.0075 31.416C81.9936 32.0184 80.8399 32.3398 79.6633 32.3477C78.6115 32.3757 77.5892 31.9949 76.8077 31.2841C76.0263 30.5733 75.5454 29.5868 75.4645 28.5285ZM79.6232 22.4177C80.0503 22.4096 80.4748 22.487 80.8722 22.6452C81.2696 22.8034 81.632 23.0393 81.9386 23.3395C82.2452 23.6396 82.4899 23.998 82.6586 24.394C82.8273 24.79 82.9166 25.2157 82.9214 25.6467C82.9214 25.8203 82.7494 25.9244 82.5084 25.9592C81.0629 26.0633 77.2771 26.1038 75.4817 26.1038C75.6101 25.0856 76.1021 24.1495 76.8655 23.471C77.629 22.7924 78.6114 22.4179 79.6289 22.4177H79.6232ZM89.6729 32.5907C89.4981 32.7619 89.3597 32.9671 89.266 33.1939C89.1724 33.4207 89.1254 33.6644 89.1279 33.9101C89.1824 34.3875 89.4088 34.828 89.7641 35.1481C90.1195 35.4681 90.5789 35.6454 91.0553 35.6461C91.4073 35.6392 91.7514 35.5394 92.0533 35.3566C92.3552 35.1739 92.6044 34.9146 92.7761 34.6045C93.6365 33.4935 94.8755 31.8963 96.4587 29.9867C97.2847 31.0283 99.2809 33.5282 100.107 34.5698C100.286 34.8766 100.536 35.1349 100.835 35.3224C101.135 35.5099 101.476 35.621 101.828 35.6461C102.297 35.6404 102.749 35.4659 103.102 35.1541C103.456 34.8422 103.687 34.4134 103.755 33.9448C103.735 33.6489 103.654 33.3604 103.518 33.0975C103.381 32.8346 103.193 32.6029 102.963 32.4171L98.6614 27.5216L101.69 24.0148C102.757 22.8343 103.617 22.1341 103.617 21.2025C103.557 20.7185 103.325 20.2728 102.964 19.9475C102.604 19.6222 102.139 19.439 101.656 19.4317C101.036 19.4317 100.589 19.7442 99.8659 20.6122C98.3172 22.5913 97.1126 24.119 96.3899 24.987C95.6728 24.0843 94.7379 22.9385 92.604 20.265C92.4358 20.0169 92.2097 19.8144 91.9456 19.6751C91.6816 19.5359 91.3876 19.4642 91.0897 19.4665C90.2637 19.5012 89.2254 20.265 89.2254 21.0983C89.2422 21.6256 89.4649 22.1248 89.8449 22.4871C90.9119 23.8065 92.495 25.5425 93.5964 26.7924L94.1814 27.4521L92.6729 29.2923L89.6729 32.5907ZM122.306 24.2926L122.34 21.6191C122.34 20.2998 121.927 19.5012 120.55 19.5012C120.215 19.4839 119.884 19.5806 119.609 19.7757C119.335 19.9708 119.133 20.2531 119.036 20.5775C118.967 20.89 118.893 21.4455 118.83 21.8622C118.313 21.0949 117.613 20.4705 116.796 20.046C115.978 19.6214 115.068 19.4103 114.149 19.4317C109.675 19.4317 106.233 22.9385 106.233 28.0077C106.185 29.018 106.344 30.0276 106.7 30.9732C107.056 31.9189 107.601 32.7803 108.302 33.5037C109.003 34.2271 109.844 34.7969 110.773 35.1774C111.702 35.558 112.699 35.7412 113.701 35.7155C114.716 35.7641 115.724 35.5307 116.616 35.0409C117.509 34.5512 118.25 33.8237 118.761 32.9379C119.002 34.7492 119.311 35.6172 120.447 35.6172C121.451 35.6172 122.409 35.27 122.409 34.0258C122.306 32.5329 122.266 31.0746 122.266 29.5816L122.306 24.2926ZM110.053 27.9093C110.053 24.8192 111.877 22.7012 114.355 22.7012C114.964 22.7086 115.565 22.8431 116.12 23.0965C116.675 23.3498 117.172 23.7164 117.579 24.1731C117.987 24.6298 118.296 25.1667 118.488 25.75C118.679 26.3333 118.749 26.9503 118.692 27.5621C118.739 28.1879 118.658 28.8168 118.452 29.4092C118.247 30.0017 117.922 30.5449 117.499 31.0047C117.076 31.4645 116.562 31.8309 115.992 32.081C115.421 32.331 114.805 32.4592 114.183 32.4576C113.612 32.444 113.049 32.314 112.529 32.0754C112.009 31.8367 111.541 31.4944 111.156 31.069C110.77 30.6436 110.473 30.1439 110.284 29.5999C110.094 29.0559 110.016 28.4789 110.053 27.9035V27.9093ZM126.883 14.2295L126.986 24.8192L126.918 33.1868C126.877 33.7191 127.045 34.2463 127.387 34.6545C127.728 35.0626 128.215 35.319 128.742 35.3683C130.256 35.5072 131.942 35.4725 133.319 35.4725C141.166 35.4031 146.397 32.0352 146.397 22.9038C146.397 15.7514 140.925 12.0363 134.455 11.828C133.973 11.7933 130.979 11.828 130.394 11.828C128.604 11.828 126.883 12.2447 126.883 14.2237V14.2295ZM133.835 15.3058C138.447 15.3058 142.612 17.7015 142.612 23.2915C142.612 29.7842 138.654 31.9715 133.078 31.9715C131.323 31.9715 130.772 32.0063 130.772 31.173V15.3637C131.564 15.3 133.353 15.3 133.835 15.3V15.3058ZM165.017 24.2926L165.051 21.6191C165.051 20.2998 164.638 19.5012 163.262 19.5012C162.926 19.4839 162.595 19.5806 162.32 19.7757C162.046 19.9708 161.844 20.2531 161.747 20.5775C161.678 20.89 161.604 21.4455 161.541 21.8622C161.024 21.0949 160.325 20.4705 159.507 20.046C158.689 19.6214 157.779 19.4103 156.86 19.4317C152.386 19.4317 148.944 22.9385 148.944 28.0077C148.896 29.018 149.055 30.0276 149.411 30.9732C149.767 31.9189 150.312 32.7803 151.013 33.5037C151.714 34.2271 152.555 34.7969 153.484 35.1774C154.413 35.558 155.41 35.7412 156.413 35.7155C157.427 35.7641 158.435 35.5307 159.328 35.0409C160.22 34.5512 160.961 33.8237 161.472 32.9379C161.713 34.7492 162.023 35.6172 163.158 35.6172C164.162 35.6172 165.12 35.27 165.12 34.0258C165.017 32.5329 164.977 31.0746 164.977 29.5816L165.017 24.2926ZM152.764 27.9093C152.764 24.8192 154.589 22.7012 157.067 22.7012C157.675 22.7086 158.275 22.843 158.83 23.096C159.384 23.349 159.881 23.715 160.288 24.1711C160.696 24.6272 161.005 25.1634 161.197 25.746C161.389 26.3286 161.459 26.945 161.403 27.5563C161.45 28.1821 161.369 28.811 161.164 29.4034C160.958 29.9959 160.634 30.5391 160.21 30.9989C159.787 31.4587 159.274 31.8251 158.703 32.0752C158.132 32.3252 157.517 32.4535 156.894 32.4518C156.324 32.4382 155.761 32.3084 155.241 32.0701C154.722 31.8318 154.255 31.49 153.869 31.0652C153.483 30.6404 153.187 30.1414 152.997 29.5981C152.807 29.0548 152.728 28.4784 152.764 27.9035V27.9093ZM175.342 19.3739C172.107 19.3739 169.009 21.4571 169.009 24.5125C169.009 27.6373 172.003 28.3664 174.757 28.7484C176.891 29.0493 178.095 29.3965 178.095 30.7158C178.095 31.9658 176.856 32.6254 175.342 32.6254C172.933 32.6254 171.625 31.6128 170.351 31.6128C169.25 31.6128 168.872 32.5155 168.872 33.4935C168.872 34.7087 171.969 35.7503 174.998 35.7503C178.99 35.7503 181.537 33.8696 181.537 30.6117C181.537 27.4174 179.024 26.3758 175.72 25.9244C174 25.6814 172.451 25.5772 172.451 24.2926C172.451 23.1121 173.793 22.3483 175.376 22.3483C176.778 22.5227 178.167 22.7894 179.535 23.1468C180.567 23.1468 181.015 22.4871 181.015 21.515C181.015 20.8206 180.533 20.4386 179.948 20.1609C178.483 19.5784 176.915 19.3066 175.342 19.3623V19.3739ZM185.288 12.2215L185.323 29.3965C185.323 30.5075 185.219 32.4866 185.219 34.0143C185.221 34.2488 185.272 34.4804 185.369 34.6936C185.466 34.9069 185.606 35.0969 185.782 35.2512C185.957 35.4054 186.162 35.5204 186.385 35.5885C186.607 35.6566 186.842 35.6762 187.072 35.6461C188.242 35.6461 189.034 35.0906 189.034 34.0143C189.034 32.4229 188.965 29.2923 188.965 27.1744C188.928 26.6193 189 26.0623 189.177 25.5355C189.355 25.0087 189.634 24.5227 189.999 24.1056C190.364 23.6885 190.807 23.3485 191.303 23.1055C191.799 22.8624 192.338 22.7211 192.889 22.6897C194.988 22.6897 196.227 24.0785 196.227 26.6131C196.227 28.1755 196.124 32.6197 196.055 33.939C196.055 35.0501 196.95 35.5709 197.948 35.5709C199.118 35.5709 199.944 35.0501 199.979 33.939C200.013 31.1267 199.979 28.6963 199.979 26.3353C199.979 22.3772 197.845 19.2871 193.852 19.2871C192.873 19.263 191.906 19.5056 191.052 19.9893C190.198 20.473 189.489 21.18 189 22.0358C189.068 14.6751 189.103 13.0779 189.103 12.0016C189.138 11.7499 189.115 11.4934 189.037 11.2519C188.958 11.0104 188.826 10.7903 188.649 10.6087C188.473 10.427 188.258 10.2885 188.02 10.204C187.783 10.1194 187.529 10.091 187.279 10.1209C185.942 10.1267 185.288 10.8211 185.288 12.2099V12.2215Z" fill="#5A58B9"/>
</g>
<defs>
<clipPath id="clip0_946_14361">
<rect width="200" height="46" fill="white"/>
</clipPath>
</defs>
</svg>
